<svg width="18" height="18" viewBox="0 0 18 18" fill="none" xmlns="http://www.w3.org/2000/svg">
<path opacity="0.6" fill-rule="evenodd" clip-rule="evenodd" d="M15.643 3.61044C14.6078 2.76128 13.7143 2.02816 13.7143 0.376102C13.7143 0.168223 13.5545 0 13.3571 0C13.1597 0 13 0.168223 13 0.376102V12.7346C13 13.1496 12.6798 13.4868 12.2857 13.4868H10.8571C9.28136 13.4868 8 14.499 8 15.7434C8 16.9877 9.28136 18 10.8571 18C12.4329 18 13.7143 16.9877 13.7143 15.7434V2.73702C14.1277 3.31815 14.6698 3.76502 15.2042 4.20325L15.206 4.20468C16.2754 5.08267 17.2857 5.91215 17.2857 7.84526C17.2857 8.05314 17.4454 8.22136 17.6428 8.22136C17.8403 8.22136 18 8.05314 18 7.84526C18 5.54382 16.7479 4.51617 15.643 3.61044ZM13 15.7434C13 16.5588 12.0185 17.2478 10.8571 17.2478C9.69573 17.2478 8.71427 16.5588 8.71427 15.7434C8.71427 14.928 9.69573 14.239 10.8571 14.239H12.2857C12.5459 14.239 12.7901 14.1655 13 14.037V15.7434ZM0.785714 1.79998H10.2143C10.648 1.79998 11 1.62078 11 1.39998C11 1.17919 10.648 0.999988 10.2143 0.999988H0.785714C0.352 0.999988 0 1.17919 0 1.39998C0 1.62078 0.352 1.79998 0.785714 1.79998ZM9.28571 6.79969H0.714286C0.32 6.79969 0 6.6206 0 6.39992C0 6.17925 0.32 6.00015 0.714286 6.00015H9.28571C9.68 6.00015 10 6.17925 10 6.39992C10 6.6206 9.68 6.79969 9.28571 6.79969ZM7.875 10.9999H1.125C0.504 10.9999 0 11.1791 0 11.3999C0 11.6207 0.504 11.7999 1.125 11.7999H7.875C8.496 11.7999 9 11.6207 9 11.3999C9 11.1791 8.496 10.9999 7.875 10.9999ZM0.75 15.9998H5.25C5.664 15.9998 6 16.179 6 16.3998C6 16.6206 5.664 16.7998 5.25 16.7998H0.75C0.336 16.7998 0 16.6206 0 16.3998C0 16.179 0.336 15.9998 0.75 15.9998Z" fill="#F8F8F8"/>
</svg>
