<svg width="18" height="18" viewBox="0 0 18 18" fill="none" xmlns="http://www.w3.org/2000/svg">
<path d="M16.8933 0.0812544C16.8256 0.019399 16.7362 -0.00874678 16.6458 0.00238064L6.92031 1.31509C6.76408 1.33636 6.64706 1.4748 6.64706 1.63942V3.60865V4.98714V13.2947C6.0742 12.5764 5.16408 12.109 4.13726 12.109C2.40737 12.109 1 13.4302 1 15.0545C1 16.6788 2.40737 18 4.13726 18C5.86714 18 7.27451 16.6788 7.27451 15.0545C7.27451 14.9786 7.26855 14.904 7.26227 14.8297C7.26635 14.8084 7.27451 14.7891 7.27451 14.7668V5.27481L16.3725 4.04654V10.0216C15.7997 9.30359 14.8896 8.83624 13.8627 8.83624C12.1329 8.83624 10.7255 10.1575 10.7255 11.7817C10.7255 13.406 12.1329 14.7272 13.8627 14.7272C15.5769 14.7272 16.9727 13.4292 16.9978 11.8253C16.9978 11.821 17 11.8174 17 11.8132V3.6741V2.29594V0.327039C17 0.232784 16.9611 0.14311 16.8933 0.0812544ZM4.13726 17.3454C2.75341 17.3454 1.62745 16.3175 1.62745 15.0545C1.62745 13.7915 2.75341 12.7636 4.13726 12.7636C5.5211 12.7636 6.64706 13.7915 6.64706 15.0545C6.64706 16.3175 5.5211 17.3454 4.13726 17.3454ZM13.8627 14.0727C12.4789 14.0727 11.3529 13.0447 11.3529 11.7817C11.3529 10.5188 12.4789 9.4908 13.8627 9.4908C15.2466 9.4908 16.3725 10.5188 16.3725 11.7817C16.3725 13.0447 15.2466 14.0727 13.8627 14.0727ZM7.27451 4.6147V3.60865V1.9271L16.3725 0.699153V2.29594V3.38643L7.27451 4.6147Z" fill="#FF7300"/>
</svg>
