<svg width="18" height="19" viewBox="0 0 18 19" fill="none" xmlns="http://www.w3.org/2000/svg">
<path fill-rule="evenodd" clip-rule="evenodd" d="M17.8696 17.8861C17.7039 18.0448 17.441 18.0425 17.2781 17.8795L12.6342 13.2309C12.5968 13.1935 12.5679 13.1509 12.5475 13.1054L12.5024 13.0603C11.1735 14.2572 9.4214 14.9928 7.49639 14.9928C3.3629 14.9928 0 11.6299 0 7.49639C0 3.3629 3.3629 0 7.49639 0C11.6299 0 14.9927 3.3629 14.9928 7.49635C14.9928 9.42136 14.2572 11.1735 13.0603 12.5024L13.1023 12.5443C13.1495 12.5649 13.1938 12.5945 13.2324 12.6332L17.8764 17.2818C18.038 17.4436 18.0412 17.7037 17.8861 17.8694V17.8861H17.8696ZM7.49639 14.2037C3.7983 14.2037 0.789117 11.1949 0.789117 7.49639C0.789117 3.79793 3.7983 0.78908 7.49639 0.78908C11.1945 0.78908 14.2037 3.79789 14.2037 7.49639C14.2037 11.1949 11.1945 14.2037 7.49639 14.2037Z" fill="#FF7300"/>
</svg>
