<svg width="20" height="20" viewBox="0 0 20 20" fill="none" xmlns="http://www.w3.org/2000/svg">
<path d="M10 0C8.02209 5.6412e-08 6.0886 0.58655 4.44405 1.68547C2.79951 2.78439 1.51779 4.34632 0.76098 6.17372C0.00417452 8.00112 -0.193719 10.0119 0.192326 11.9518C0.578372 13.8917 1.53102 15.6735 2.92978 17.0719C4.32854 18.4703 6.1106 19.4226 8.05056 19.8081C9.99053 20.1937 12.0013 19.9953 13.8285 19.2381C15.6557 18.4809 17.2173 17.1988 18.3159 15.554C19.4144 13.9092 20.0005 11.9755 20 9.99761C19.999 7.34596 18.9451 4.80321 17.0699 2.92844C15.1946 1.05366 12.6517 0.000316445 10 0V0ZM14.5856 14.4232C14.543 14.4932 14.487 14.5541 14.4209 14.6024C14.3547 14.6508 14.2796 14.6856 14.2 14.7049C14.1204 14.7242 14.0377 14.7276 13.9567 14.7149C13.8758 14.7022 13.7981 14.6737 13.7282 14.631C11.3805 13.198 8.42489 12.872 4.94388 13.6673C4.78267 13.7042 4.61341 13.6755 4.47333 13.5876C4.33324 13.4997 4.23382 13.3598 4.19692 13.1986C4.16002 13.0374 4.18868 12.8681 4.27658 12.728C4.36448 12.588 4.50443 12.4885 4.66564 12.4516C8.47504 11.5811 11.7435 11.9561 14.379 13.567C14.4489 13.6096 14.5096 13.6655 14.5578 13.7316C14.606 13.7978 14.6407 13.8727 14.6599 13.9523C14.6791 14.0318 14.6824 14.1143 14.6697 14.1951C14.6569 14.2759 14.6284 14.3534 14.5856 14.4232ZM15.8096 11.7005C15.7561 11.7881 15.6857 11.8642 15.6027 11.9246C15.5196 11.9849 15.4255 12.0282 15.3256 12.0521C15.2257 12.0759 15.1222 12.0798 15.0208 12.0636C14.9194 12.0473 14.8223 12.0112 14.7349 11.9572C12.0468 10.3057 7.94961 9.82684 4.76953 10.7917C4.67049 10.8255 4.56565 10.839 4.46128 10.8315C4.35691 10.8239 4.25513 10.7954 4.162 10.7476C4.06887 10.6999 3.98631 10.6339 3.91922 10.5536C3.85214 10.4733 3.80191 10.3803 3.77152 10.2801C3.74114 10.18 3.73122 10.0748 3.74235 9.97072C3.75349 9.86666 3.78546 9.76592 3.83635 9.67448C3.88725 9.58304 3.95603 9.50278 4.03859 9.43848C4.12115 9.37418 4.21582 9.32716 4.31694 9.30021C7.94841 8.19799 12.4636 8.73179 15.5505 10.6281C15.638 10.6815 15.7141 10.7516 15.7744 10.8344C15.8348 10.9172 15.8782 11.011 15.9023 11.1106C15.9264 11.2102 15.9306 11.3136 15.9147 11.4148C15.8988 11.516 15.8631 11.6131 15.8096 11.7005V11.7005ZM15.9147 8.86553C12.6905 6.95486 7.37402 6.77454 4.29664 7.70838C4.0591 7.78028 3.80273 7.75486 3.58393 7.63774C3.36513 7.52061 3.20182 7.32136 3.12993 7.08383C3.05804 6.84629 3.08345 6.58993 3.20057 6.37113C3.3177 6.15233 3.51695 5.98902 3.75448 5.91712C7.28684 4.84237 13.1586 5.05254 16.8701 7.25579C17.0834 7.38248 17.2376 7.58871 17.2989 7.82912C17.3601 8.06953 17.3234 8.32443 17.1967 8.53773C17.07 8.75104 16.8638 8.90529 16.6234 8.96654C16.3829 9.02779 16.128 8.99103 15.9147 8.86434V8.86553Z" fill="#091856"/>
</svg>
