<svg width="20" height="21" viewBox="0 0 20 21" fill="none" xmlns="http://www.w3.org/2000/svg">
<path d="M10 0.971191C8.02209 0.971191 6.0886 1.55774 4.44405 2.65666C2.79951 3.75558 1.51779 5.31751 0.76098 7.14491C0.00417452 8.97231 -0.193719 10.9831 0.192326 12.923C0.578372 14.8628 1.53102 16.6447 2.92978 18.0431C4.32854 19.4415 6.1106 20.3937 8.05056 20.7793C9.99053 21.1649 12.0013 20.9665 13.8285 20.2093C15.6557 19.4521 17.2173 18.17 18.3159 16.5252C19.4144 14.8803 20.0005 12.9467 20 10.9688C19.9991 8.31715 18.9451 5.77441 17.0699 3.89963C15.1946 2.02485 12.6517 0.971508 10 0.971191ZM14.5856 15.3944C14.543 15.4644 14.487 15.5253 14.4208 15.5736C14.3547 15.622 14.2796 15.6568 14.2 15.6761C14.1204 15.6954 14.0377 15.6988 13.9567 15.6861C13.8758 15.6734 13.7981 15.6449 13.7282 15.6022C11.3805 14.1692 8.42489 13.8432 4.94388 14.6385C4.78267 14.6754 4.61341 14.6467 4.47333 14.5588C4.33324 14.4709 4.23382 14.331 4.19692 14.1698C4.16003 14.0086 4.18868 13.8393 4.27658 13.6992C4.36448 13.5591 4.50443 13.4597 4.66564 13.4228C8.47504 12.5523 11.7435 12.9272 14.379 14.5382C14.4489 14.5808 14.5096 14.6367 14.5578 14.7028C14.606 14.7689 14.6407 14.8439 14.6599 14.9234C14.6791 15.003 14.6824 15.0855 14.6697 15.1663C14.6569 15.2471 14.6284 15.3246 14.5856 15.3944ZM15.8096 12.6717C15.7561 12.7593 15.6857 12.8354 15.6027 12.8958C15.5196 12.9561 15.4255 12.9994 15.3256 13.0233C15.2257 13.0471 15.1222 13.051 15.0208 13.0348C14.9194 13.0185 14.8223 12.9824 14.7349 12.9284C12.0468 11.2769 7.94961 10.798 4.76953 11.7629C4.67049 11.7967 4.56565 11.8102 4.46128 11.8027C4.35691 11.7951 4.25513 11.7666 4.162 11.7188C4.06887 11.6711 3.98631 11.6051 3.91922 11.5248C3.85214 11.4445 3.80191 11.3515 3.77152 11.2513C3.74114 11.1512 3.73122 11.046 3.74235 10.9419C3.75349 10.8379 3.78546 10.7371 3.83635 10.6457C3.88725 10.5542 3.95603 10.474 4.03859 10.4097C4.12115 10.3454 4.21582 10.2983 4.31694 10.2714C7.94841 9.16918 12.4636 9.70298 15.5505 11.5993C15.638 11.6527 15.7141 11.7228 15.7744 11.8056C15.8348 11.8883 15.8782 11.9822 15.9023 12.0818C15.9264 12.1814 15.9306 12.2848 15.9147 12.386C15.8988 12.4872 15.8631 12.5843 15.8096 12.6717ZM15.9147 9.83673C12.6905 7.92605 7.37402 7.74573 4.29664 8.67957C4.0591 8.75147 3.80273 8.72606 3.58393 8.60893C3.36513 8.4918 3.20182 8.29256 3.12993 8.05502C3.05804 7.81748 3.08345 7.56112 3.20057 7.34232C3.3177 7.12352 3.51695 6.96021 3.75448 6.88831C7.28684 5.81356 13.1586 6.02373 16.8701 8.22698C17.0834 8.35367 17.2376 8.5599 17.2989 8.80031C17.3601 9.04072 17.3234 9.29562 17.1967 9.50893C17.07 9.72223 16.8638 9.87648 16.6234 9.93773C16.3829 9.99898 16.128 9.96222 15.9147 9.83553V9.83673Z" fill="white"/>
</svg>
