<svg width="12" height="10" viewBox="0 0 12 10" fill="none" xmlns="http://www.w3.org/2000/svg">
<g opacity="0.8">
<path d="M6.01319 6C6.56426 6 7.011 5.55228 7.011 5C7.011 4.44772 6.56426 4 6.01319 4C5.46211 4 5.01538 4.44772 5.01538 5C5.01538 5.55228 5.46211 6 6.01319 6Z" fill="#1E2645"/>
<path d="M1.01093 6C1.56925 6 2.02186 5.55228 2.02186 5C2.02186 4.44772 1.56925 4 1.01093 4C0.452608 4 0 4.44772 0 5C0 5.55228 0.452608 6 1.01093 6Z" fill="#1E2645"/>
<path d="M11.0022 6C11.5533 6 12 5.55228 12 5C12 4.44772 11.5533 4 11.0022 4C10.4511 4 10.0044 4.44772 10.0044 5C10.0044 5.55228 10.4511 6 11.0022 6Z" fill="#1E2645"/>
</g>
</svg>
