<svg width="16" height="16" viewBox="0 0 16 16" fill="none" xmlns="http://www.w3.org/2000/svg">
<path d="M7.05539 0C3.16509 0 0 3.16406 0 7.05314C0 10.9422 3.16512 14.1063 7.05539 14.1063C10.9457 14.1063 14.1108 10.9422 14.1108 7.05314C14.1108 3.16406 10.9457 0 7.05539 0ZM7.05539 12.9468C3.80277 12.9468 1.15662 10.3028 1.15662 7.05311C1.15662 3.80325 3.80277 1.15939 7.05539 1.15939C10.308 1.15939 12.9542 3.80325 12.9542 7.05311C12.9542 10.3028 10.308 12.9468 7.05539 12.9468Z" fill="#1E2645"/>
<path d="M15.8297 15.0093L12.0321 11.2219C11.8056 10.9962 11.4395 10.9971 11.2141 11.224C10.989 11.451 10.99 11.818 11.2163 12.0439L15.0138 15.8313C15.1268 15.9438 15.2741 16 15.4218 16C15.5704 16 15.7188 15.943 15.8318 15.8292C16.0569 15.6021 16.056 15.2352 15.8297 15.0093Z" fill="#1E2645"/>
</svg>
