<svg width="16" height="16" viewBox="0 0 16 16" fill="none" xmlns="http://www.w3.org/2000/svg">
<path d="M12.952 3.04803C10.2207 0.317324 5.77886 0.317324 3.04758 3.04803C0.317474 5.77873 0.317474 10.2217 3.04758 12.9524C4.41322 14.3175 6.20663 14.9997 8.00008 14.9997C9.79352 14.9997 11.5863 14.3175 12.952 12.9524C15.6827 10.2217 15.6827 5.77873 12.952 3.04803ZM10.8883 10.0636C11.1165 10.2917 11.1165 10.6606 10.8883 10.8888C10.7745 11.0026 10.6251 11.0598 10.4757 11.0598C10.3263 11.0598 10.1769 11.0026 10.0631 10.8888L8.00005 8.82513L5.93758 10.8882C5.8232 11.002 5.67378 11.0592 5.52496 11.0592C5.37557 11.0592 5.22615 11.002 5.11234 10.8882C4.88416 10.66 4.88416 10.2906 5.11234 10.063L7.17481 7.99992L5.11177 5.93688C4.88359 5.7087 4.88359 5.33928 5.11177 5.11167C5.33937 4.88349 5.7088 4.88349 5.93698 5.11167L8.00002 7.17471L10.0631 5.11167C10.2912 4.88349 10.6601 4.88349 10.8883 5.11167C11.1165 5.33928 11.1165 5.7087 10.8883 5.93688L8.82523 7.99992L10.8883 10.0636Z" fill="#1E2645"/>
</svg>
