<svg width="16" height="16" viewBox="0 0 16 16" fill="none" xmlns="http://www.w3.org/2000/svg">
<path d="M4.7742 0H4.77419C4.34662 0 4 0.346618 4 0.774194V15.2258C4 15.6534 4.34662 16 4.7742 16C5.20177 16 5.54839 15.6534 5.54839 15.2258V0.774194C5.54839 0.346618 5.20177 0 4.7742 0Z" fill="#F8F8F8"/>
<path d="M11.2259 0H11.2259C10.7983 0 10.4517 0.346618 10.4517 0.774194V15.2258C10.4517 15.6534 10.7983 16 11.2259 16C11.6534 16 12 15.6534 12 15.2258V0.774194C12 0.346618 11.6534 0 11.2259 0Z" fill="#F8F8F8"/>
</svg>
