<svg width="16" height="16" viewBox="0 0 16 16" fill="none" xmlns="http://www.w3.org/2000/svg">
<path d="M8.93803 8.00415L15.7966 1.14562C16.0613 0.889965 16.0686 0.468146 15.813 0.203436C15.5573 -0.0612738 15.1355 -0.0686138 14.8708 0.187038C14.8652 0.192387 14.8598 0.197853 14.8544 0.203436L7.99582 7.06197L1.13729 0.203397C0.872577 -0.0522549 0.450759 -0.0449148 0.195107 0.219795C-0.0542987 0.478024 -0.0542987 0.887388 0.195107 1.14562L7.05363 8.00415L0.195107 14.8627C-0.0650355 15.1229 -0.0650355 15.5447 0.195107 15.8049C0.455288 16.065 0.877106 16.065 1.13729 15.8049L7.99582 8.94633L14.8543 15.8049C15.1191 16.0605 15.5409 16.0532 15.7965 15.7885C16.0459 15.5302 16.0459 15.1209 15.7965 14.8627L8.93803 8.00415Z" fill="white"/>
</svg>
