<svg width="18" height="18" viewBox="0 0 18 18" fill="none" xmlns="http://www.w3.org/2000/svg">
<path d="M17.8076 7.90364L9.43826 0.170579C9.19444 -0.0568596 8.80557 -0.0568596 8.56176 0.170579L0.192778 7.90333C0.0695706 8.01713 0 8.17395 0 8.33783C0 8.67136 0.282542 8.94172 0.631026 8.94172H1.74321V17.3961C1.74321 17.7296 2.02571 18 2.37424 18H6.79142C7.13994 18 7.42244 17.7296 7.42244 17.3961V12.565H10.5776V17.3961C10.5776 17.7296 10.8601 18 11.2086 18H15.6258C15.9743 18 16.2568 17.7296 16.2568 17.3961V8.94172H17.369C17.5401 8.94172 17.7038 8.87525 17.8227 8.75753C18.0649 8.51771 18.0581 8.13542 17.8076 7.90364ZM16.2568 8.33783C15.9083 8.33783 15.6258 8.60818 15.6258 8.94172V17.3961H11.2086V12.565C11.2086 12.2315 10.9261 11.9611 10.5776 11.9611H7.42244C7.07392 11.9611 6.79142 12.2315 6.79142 12.565V17.3961H2.37424V8.94172C2.37424 8.60818 2.09173 8.33783 1.74321 8.33783H0.631026L9.00001 0.605075L17.3721 8.33783H16.2568V8.33783Z" fill="#FF7300"/>
</svg>
